# xmcd
# Track frame offsets:
# 150
# 16711
# 31838
# 45033
# 59385
# 73256
# 90461
# 104655
# 119839
# 136400
# 151527
# 164722
# 179074
# 192945
# 210150
# 224344
#
# Disc length: 3193 seconds
# Revision: 0
# Processed by: cddbd v1.4PL0 Copyright (c) Steve Scherf et al.
# Submitted via: VisiTrax 2.9.6.190 - For more info visit www.synapsa.com
#
DISCID=dd0c7710
DTITLE=Various Artist - Classic Rockin Country
DYEAR=2003
DGENRE=Country
TTITLE0=The Tractors - Baby likes to rock it (kareoke)
TTITLE1=Travis Tritt - Country club (kareoke)
TTITLE2=Dwight Yoakem - Honky tonky man (kareoke)
TTITLE3=Dwight Yoakem - cadillacs Guitars (kareoke)
TTITLE4=Sawyer Brown - The race is on (kareoke)
TTITLE5=Alan Jackson - Mercury blues (kareoke)
TTITLE6=John Anderson - Country 'til I die (kareoke)
TTITLE7=Alan Jackson - Summertime blues (kareoke)
TTITLE8=The Tractors - Baby likes to rock it (vocals)
TTITLE9=Travis Tritt - Country club (vocals)
TTITLE10=Dwight Yoakem - Honky tonk man (vocals)
TTITLE11=Dwight Yoakem - Guitars, cadillacs (vocals)
TTITLE12=Sawyer Brown - The race is on (vocals)
TTITLE13=Alan Jackson - Mercury blues (vocals)
TTITLE14=John Anderson - Country 'til I die (vocals)
TTITLE15=Alan Jackson - Summertime blues (vocals)
EXTD=KareokeBay CD
EXTT0=
EXTT1=
EXTT2=
EXTT3=
EXTT4=
EXTT5=
EXTT6=
EXTT7=
EXTT8=
EXTT9=
EXTT10=
EXTT11=
EXTT12=
EXTT13=
EXTT14=
EXTT15=
PLAYORDER=
